<svg xmlns="http://www.w3.org/2000/svg" xmlns:xlink="http://www.w3.org/1999/xlink" width="500" zoomAndPan="magnify" viewBox="0 0 375 374.999991" height="500" preserveAspectRatio="xMidYMid meet" version="1.0"><defs><g/><clipPath id="479f9a2741"><path d="M 233.265625 69.015625 L 233.667969 69.015625 L 233.667969 84.269531 L 233.265625 84.269531 Z M 233.265625 69.015625 " clip-rule="nonzero"/></clipPath><clipPath id="3dd014be43"><path d="M 233.453125 69.300781 L 233.492188 84.199219 C 233.519531 74.871094 233.519531 69.199219 233.453125 69.300781 Z M 233.453125 69.300781 " clip-rule="nonzero"/></clipPath><clipPath id="43154435bb"><path d="M 0.28125 0.121094 L 0.667969 0.121094 L 0.667969 15.238281 L 0.28125 15.238281 Z M 0.28125 0.121094 " clip-rule="nonzero"/></clipPath><clipPath id="3fe1ad81c1"><path d="M 0.453125 0.300781 L 0.492188 15.199219 C 0.519531 5.871094 0.519531 0.199219 0.453125 0.300781 Z M 0.453125 0.300781 " clip-rule="nonzero"/></clipPath><clipPath id="fde90ac6e5"><rect x="0" width="1" y="0" height="16"/></clipPath><clipPath id="e650addb31"><path d="M 232.464844 69.015625 L 233.667969 69.015625 L 233.667969 69.816406 L 232.464844 69.816406 Z M 232.464844 69.015625 " clip-rule="nonzero"/></clipPath><clipPath id="7b721ac257"><path d="M 232.671875 69.691406 C 233.171875 69.441406 233.441406 69.300781 233.453125 69.300781 C 233.460938 69.300781 232.691406 69.691406 232.671875 69.691406 Z M 232.671875 69.691406 " clip-rule="nonzero"/></clipPath><clipPath id="24745b806b"><path d="M 0.558594 0.121094 L 1.519531 0.121094 L 1.519531 0.816406 L 0.558594 0.816406 Z M 0.558594 0.121094 " clip-rule="nonzero"/></clipPath><clipPath id="3daf97ca4f"><path d="M 0.671875 0.691406 C 1.171875 0.441406 1.441406 0.300781 1.453125 0.300781 C 1.460938 0.300781 0.691406 0.691406 0.671875 0.691406 Z M 0.671875 0.691406 " clip-rule="nonzero"/></clipPath><clipPath id="a5d8662be5"><rect x="0" width="2" y="0" height="1"/></clipPath><clipPath id="44f2134a14"><path d="M 141 64.597656 L 234 64.597656 L 234 243.253906 L 141 243.253906 Z M 141 64.597656 " clip-rule="nonzero"/></clipPath><clipPath id="c0a5d10f54"><path d="M 233.882812 242.699219 L 233.492188 84.199219 C 233.351562 125.800781 232.550781 240.320312 233.402344 242.28125 L 172.351562 242.230469 C 172.339844 240.839844 172.332031 236.429688 172.320312 229.960938 C 185.5 229.980469 197.910156 230 198.160156 230.011719 L 198.632812 230.011719 C 198.632812 230.011719 198.632812 229.539062 198.632812 229.539062 C 198.640625 225.929688 198.640625 222.332031 198.652344 218.722656 L 217.679688 218.742188 C 217.679688 218.742188 218.171875 218.742188 218.171875 218.742188 C 218.171875 218.742188 218.171875 218.25 218.171875 218.25 C 218.132812 218.191406 218.011719 91.332031 217.960938 91.320312 C 217.910156 91.300781 211.679688 88.402344 203.371094 84.519531 C 218.011719 77.109375 231.941406 70.0625 232.671875 69.691406 C 229.402344 71.320312 216.292969 77.8125 203.050781 84.371094 C 186.203125 76.53125 161.089844 64.839844 160.992188 64.789062 C 160.992188 64.789062 185.832031 76.621094 202.589844 84.609375 C 187.140625 92.25 171.671875 99.910156 171.613281 99.980469 C 171.621094 99.992188 171.613281 105.902344 171.601562 115.300781 C 168.113281 116.941406 164.601562 118.589844 161.203125 120.199219 C 161.101562 101.609375 161 84.832031 160.972656 74.722656 C 160.960938 80.25 160.902344 99.28125 160.851562 120.371094 C 153.460938 123.851562 146.570312 127.089844 141.480469 129.492188 C 146.542969 127.171875 153.441406 124.011719 160.851562 120.621094 C 160.730469 165.8125 160.582031 218.261719 160.582031 218.261719 C 160.582031 218.261719 160.582031 218.679688 160.582031 218.679688 L 161 218.679688 C 161 218.679688 171.429688 218.691406 171.429688 218.691406 C 171.421875 222.53125 171.421875 226.050781 171.421875 229.121094 L 141.839844 229.179688 L 141.730469 179.589844 L 141.480469 129.492188 L 141.230469 179.441406 L 141.113281 229.53125 C 141.113281 229.53125 141.113281 229.890625 141.113281 229.890625 C 141.371094 229.902344 156.703125 229.921875 171.402344 229.949219 C 171.390625 237.839844 171.390625 242.691406 171.402344 242.699219 L 171.402344 243.179688 C 171.402344 243.179688 171.882812 243.179688 171.882812 243.179688 L 233.453125 243.121094 L 233.882812 243.121094 C 233.882812 243.121094 233.882812 242.691406 233.882812 242.691406 Z M 171.421875 217.820312 C 165.601562 217.832031 161.492188 217.832031 161.03125 217.832031 C 161.640625 216.730469 161.421875 163.761719 161.191406 120.449219 C 164.589844 118.890625 168.101562 117.289062 171.589844 115.679688 C 171.550781 140.351562 171.460938 188.402344 171.421875 217.8125 Z M 172 100.382812 C 172 100.382812 187.453125 92.5625 202.910156 84.75 C 211.292969 88.742188 217.570312 91.742188 217.570312 91.742188 C 217.191406 90.589844 217.269531 209.378906 217.210938 217.769531 C 215.292969 217.769531 207.679688 217.78125 198.652344 217.789062 C 198.660156 211.179688 198.660156 204.5625 198.632812 197.941406 C 198.589844 177.351562 198.492188 124 198.441406 102.699219 C 191.78125 105.8125 182.070312 110.371094 172.171875 115.03125 C 172.132812 105.769531 172.070312 100.089844 172 100.382812 Z M 172.171875 115.421875 C 181.851562 110.980469 191.320312 106.640625 197.871094 103.601562 C 197.832031 124.660156 197.730469 177.992188 197.679688 197.941406 C 197.660156 204.550781 197.660156 211.171875 197.660156 217.789062 C 189.152344 217.800781 179.550781 217.8125 172.300781 217.820312 C 172.28125 188.230469 172.269531 139.8125 172.160156 115.421875 Z M 172.3125 218.679688 L 197.671875 218.710938 C 197.671875 222.160156 197.679688 225.609375 197.691406 229.0625 L 172.320312 229.109375 C 172.320312 226.03125 172.3125 222.519531 172.3125 218.679688 Z M 172.3125 218.679688 " clip-rule="nonzero"/></clipPath><clipPath id="d7a1a45ec7"><path d="M 0 0.597656 L 93 0.597656 L 93 179.253906 L 0 179.253906 Z M 0 0.597656 " clip-rule="nonzero"/></clipPath><clipPath id="9289fff66a"><path d="M 92.882812 178.699219 L 92.492188 20.199219 C 92.351562 61.800781 91.550781 176.320312 92.402344 178.28125 L 31.351562 178.230469 C 31.339844 176.839844 31.332031 172.429688 31.320312 165.960938 C 44.5 165.980469 56.910156 166 57.160156 166.011719 L 57.632812 166.011719 C 57.632812 166.011719 57.632812 165.539062 57.632812 165.539062 C 57.640625 161.929688 57.640625 158.332031 57.652344 154.722656 L 76.679688 154.742188 C 76.679688 154.742188 77.171875 154.742188 77.171875 154.742188 C 77.171875 154.742188 77.171875 154.25 77.171875 154.25 C 77.132812 154.191406 77.011719 27.332031 76.960938 27.320312 C 76.910156 27.300781 70.679688 24.402344 62.371094 20.519531 C 77.011719 13.109375 90.941406 6.0625 91.671875 5.691406 C 88.402344 7.320312 75.292969 13.8125 62.050781 20.371094 C 45.203125 12.53125 20.089844 0.839844 19.992188 0.789062 C 19.992188 0.789062 44.832031 12.621094 61.589844 20.609375 C 46.140625 28.25 30.671875 35.910156 30.613281 35.980469 C 30.621094 35.992188 30.613281 41.902344 30.601562 51.300781 C 27.113281 52.941406 23.601562 54.589844 20.203125 56.199219 C 20.101562 37.609375 20 20.832031 19.972656 10.722656 C 19.960938 16.25 19.902344 35.28125 19.851562 56.371094 C 12.460938 59.851562 5.570312 63.089844 0.480469 65.492188 C 5.542969 63.171875 12.441406 60.011719 19.851562 56.621094 C 19.730469 101.8125 19.582031 154.261719 19.582031 154.261719 C 19.582031 154.261719 19.582031 154.679688 19.582031 154.679688 L 20 154.679688 C 20 154.679688 30.429688 154.691406 30.429688 154.691406 C 30.421875 158.53125 30.421875 162.050781 30.421875 165.121094 L 0.839844 165.179688 L 0.730469 115.589844 L 0.480469 65.492188 L 0.230469 115.441406 L 0.113281 165.53125 C 0.113281 165.53125 0.113281 165.890625 0.113281 165.890625 C 0.371094 165.902344 15.703125 165.921875 30.402344 165.949219 C 30.390625 173.839844 30.390625 178.691406 30.402344 178.699219 L 30.402344 179.179688 C 30.402344 179.179688 30.882812 179.179688 30.882812 179.179688 L 92.453125 179.121094 L 92.882812 179.121094 C 92.882812 179.121094 92.882812 178.691406 92.882812 178.691406 Z M 30.421875 153.820312 C 24.601562 153.832031 20.492188 153.832031 20.03125 153.832031 C 20.640625 152.730469 20.421875 99.761719 20.191406 56.449219 C 23.589844 54.890625 27.101562 53.289062 30.589844 51.679688 C 30.550781 76.351562 30.460938 124.402344 30.421875 153.8125 Z M 31 36.382812 C 31 36.382812 46.453125 28.5625 61.910156 20.75 C 70.292969 24.742188 76.570312 27.742188 76.570312 27.742188 C 76.191406 26.589844 76.269531 145.378906 76.210938 153.769531 C 74.292969 153.769531 66.679688 153.78125 57.652344 153.789062 C 57.660156 147.179688 57.660156 140.5625 57.632812 133.941406 C 57.589844 113.351562 57.492188 60 57.441406 38.699219 C 50.78125 41.8125 41.070312 46.371094 31.171875 51.03125 C 31.132812 41.769531 31.070312 36.089844 31 36.382812 Z M 31.171875 51.421875 C 40.851562 46.980469 50.320312 42.640625 56.871094 39.601562 C 56.832031 60.660156 56.730469 113.992188 56.679688 133.941406 C 56.660156 140.550781 56.660156 147.171875 56.660156 153.789062 C 48.152344 153.800781 38.550781 153.8125 31.300781 153.820312 C 31.28125 124.230469 31.269531 75.8125 31.160156 51.421875 Z M 31.3125 154.679688 L 56.671875 154.710938 C 56.671875 158.160156 56.679688 161.609375 56.691406 165.0625 L 31.320312 165.109375 C 31.320312 162.03125 31.3125 158.519531 31.3125 154.679688 Z M 31.3125 154.679688 " clip-rule="nonzero"/></clipPath><clipPath id="9c88a07f7b"><rect x="0" width="93" y="0" height="180"/></clipPath><clipPath id="7030d11d08"><path d="M 160.601562 64.597656 L 161 64.597656 L 161 75 L 160.601562 75 Z M 160.601562 64.597656 " clip-rule="nonzero"/></clipPath><clipPath id="cb3327b69f"><path d="M 160.992188 64.789062 C 160.953125 64.789062 160.941406 68.480469 160.960938 74.722656 C 160.960938 73.519531 160.992188 64.789062 160.992188 64.789062 Z M 160.992188 64.789062 " clip-rule="nonzero"/></clipPath><clipPath id="30e83df7ed"><path d="M 0.800781 0.597656 L 1 0.597656 L 1 10.878906 L 0.800781 10.878906 Z M 0.800781 0.597656 " clip-rule="nonzero"/></clipPath><clipPath id="1fb70146d0"><path d="M 0.992188 0.789062 C 0.953125 0.789062 0.941406 4.480469 0.960938 10.722656 C 0.960938 9.519531 0.992188 0.789062 0.992188 0.789062 Z M 0.992188 0.789062 " clip-rule="nonzero"/></clipPath><clipPath id="2309bda878"><rect x="0" width="1" y="0" height="11"/></clipPath></defs><g clip-path="url(#479f9a2741)"><g clip-path="url(#3dd014be43)"><g transform="matrix(1, 0, 0, 1, 233, 69)"><g clip-path="url(#fde90ac6e5)"><g clip-path="url(#43154435bb)"><g clip-path="url(#3fe1ad81c1)"><rect x="-315.5" width="540" fill="#5271ff" height="539.999987" y="-151.499998" fill-opacity="1"/></g></g></g></g></g></g><g clip-path="url(#e650addb31)"><g clip-path="url(#7b721ac257)"><g transform="matrix(1, 0, 0, 1, 232, 69)"><g clip-path="url(#a5d8662be5)"><g clip-path="url(#24745b806b)"><g clip-path="url(#3daf97ca4f)"><rect x="-314.5" width="540" fill="#5271ff" height="539.999987" y="-151.499998" fill-opacity="1"/></g></g></g></g></g></g><g clip-path="url(#44f2134a14)"><g clip-path="url(#c0a5d10f54)"><g transform="matrix(1, 0, 0, 1, 141, 64)"><g clip-path="url(#9c88a07f7b)"><g clip-path="url(#d7a1a45ec7)"><g clip-path="url(#9289fff66a)"><rect x="-223.5" width="540" fill="#5271ff" height="539.999987" y="-146.499998" fill-opacity="1"/></g></g></g></g></g></g><g clip-path="url(#7030d11d08)"><g clip-path="url(#cb3327b69f)"><g transform="matrix(1, 0, 0, 1, 160, 64)"><g clip-path="url(#2309bda878)"><g clip-path="url(#30e83df7ed)"><g clip-path="url(#1fb70146d0)"><rect x="-242.5" width="540" fill="#5271ff" height="539.999987" y="-146.499998" fill-opacity="1"/></g></g></g></g></g></g><g fill="#004aad" fill-opacity="1"><g transform="translate(119.080499, 281.86501)"><g><path d="M 14.3125 -4.90625 C 14.3125 -4.195312 14.164062 -3.523438 13.875 -2.890625 C 13.59375 -2.265625 13.171875 -1.707031 12.609375 -1.21875 C 12.046875 -0.726562 11.359375 -0.335938 10.546875 -0.046875 C 9.734375 0.234375 8.800781 0.375 7.75 0.375 C 7.550781 0.375 7.238281 0.359375 6.8125 0.328125 C 6.394531 0.304688 5.90625 0.238281 5.34375 0.125 C 4.78125 0.0195312 4.164062 -0.132812 3.5 -0.34375 C 2.84375 -0.550781 2.179688 -0.84375 1.515625 -1.21875 L 1.6875 -2.734375 C 1.957031 -2.390625 2.28125 -2.050781 2.65625 -1.71875 C 3.03125 -1.382812 3.472656 -1.085938 3.984375 -0.828125 C 4.492188 -0.566406 5.054688 -0.351562 5.671875 -0.1875 C 6.285156 -0.03125 6.96875 0.046875 7.71875 0.046875 C 8.539062 0.046875 9.242188 -0.0507812 9.828125 -0.25 C 10.410156 -0.457031 10.882812 -0.738281 11.25 -1.09375 C 11.625 -1.445312 11.894531 -1.847656 12.0625 -2.296875 C 12.238281 -2.753906 12.328125 -3.226562 12.328125 -3.71875 C 12.328125 -4.3125 12.1875 -4.875 11.90625 -5.40625 C 11.632812 -5.9375 11.257812 -6.429688 10.78125 -6.890625 C 10.3125 -7.359375 9.765625 -7.789062 9.140625 -8.1875 C 8.523438 -8.582031 7.882812 -8.953125 7.21875 -9.296875 C 6.46875 -9.691406 5.757812 -10.09375 5.09375 -10.5 C 4.425781 -10.90625 3.832031 -11.347656 3.3125 -11.828125 C 2.800781 -12.304688 2.390625 -12.832031 2.078125 -13.40625 C 1.773438 -13.988281 1.625 -14.648438 1.625 -15.390625 C 1.625 -15.992188 1.734375 -16.570312 1.953125 -17.125 C 2.179688 -17.6875 2.53125 -18.1875 3 -18.625 C 3.476562 -19.0625 4.09375 -19.40625 4.84375 -19.65625 C 5.59375 -19.90625 6.5 -20.03125 7.5625 -20.03125 C 8.644531 -20.03125 9.625 -19.90625 10.5 -19.65625 C 11.375 -19.40625 12.15625 -19.085938 12.84375 -18.703125 L 12.6875 -17.1875 C 12.175781 -17.894531 11.503906 -18.488281 10.671875 -18.96875 C 9.847656 -19.457031 8.8125 -19.703125 7.5625 -19.703125 C 6.78125 -19.703125 6.132812 -19.613281 5.625 -19.4375 C 5.125 -19.257812 4.71875 -19.03125 4.40625 -18.75 C 4.101562 -18.46875 3.890625 -18.140625 3.765625 -17.765625 C 3.640625 -17.398438 3.578125 -17.023438 3.578125 -16.640625 C 3.578125 -15.992188 3.710938 -15.410156 3.984375 -14.890625 C 4.253906 -14.378906 4.617188 -13.914062 5.078125 -13.5 C 5.546875 -13.082031 6.078125 -12.703125 6.671875 -12.359375 C 7.265625 -12.015625 7.894531 -11.671875 8.5625 -11.328125 C 9.269531 -10.953125 9.96875 -10.554688 10.65625 -10.140625 C 11.34375 -9.722656 11.957031 -9.257812 12.5 -8.75 C 13.039062 -8.25 13.476562 -7.679688 13.8125 -7.046875 C 14.144531 -6.410156 14.3125 -5.695312 14.3125 -4.90625 Z M 14.3125 -4.90625 "/></g></g></g><g fill="#004aad" fill-opacity="1"><g transform="translate(136.808037, 281.86501)"><g><path d="M 7.859375 0 L 7.859375 -19.28125 L 6.046875 -19.28125 C 5.160156 -19.28125 4.410156 -19.242188 3.796875 -19.171875 C 3.179688 -19.097656 2.65625 -19 2.21875 -18.875 C 1.789062 -18.757812 1.4375 -18.632812 1.15625 -18.5 C 0.875 -18.363281 0.632812 -18.242188 0.4375 -18.140625 L 0.515625 -19.59375 L 17.515625 -19.59375 L 17.59375 -18.140625 C 17.394531 -18.242188 17.15625 -18.363281 16.875 -18.5 C 16.59375 -18.632812 16.238281 -18.757812 15.8125 -18.875 C 15.394531 -19 14.878906 -19.097656 14.265625 -19.171875 C 13.648438 -19.242188 12.898438 -19.28125 12.015625 -19.28125 L 10.171875 -19.28125 L 10.171875 0 Z M 7.859375 0 "/></g></g></g><g fill="#004aad" fill-opacity="1"><g transform="translate(156.947967, 281.86501)"><g><path d="M 17.265625 -0.265625 C 17.453125 -0.265625 17.613281 -0.316406 17.75 -0.421875 C 17.882812 -0.535156 17.988281 -0.671875 18.0625 -0.828125 C 18.144531 -0.992188 18.207031 -1.171875 18.25 -1.359375 C 18.300781 -1.554688 18.328125 -1.742188 18.328125 -1.921875 L 18.65625 -1.921875 C 18.65625 -1.722656 18.628906 -1.488281 18.578125 -1.21875 C 18.535156 -0.945312 18.429688 -0.691406 18.265625 -0.453125 C 18.109375 -0.222656 17.875 -0.03125 17.5625 0.125 C 17.257812 0.289062 16.84375 0.375 16.3125 0.375 C 15.738281 0.375 15.21875 0.238281 14.75 -0.03125 C 14.289062 -0.300781 13.863281 -0.679688 13.46875 -1.171875 C 13.070312 -1.671875 12.691406 -2.273438 12.328125 -2.984375 C 11.972656 -3.691406 11.613281 -4.46875 11.25 -5.3125 C 10.945312 -6.019531 10.578125 -6.675781 10.140625 -7.28125 C 9.703125 -7.882812 9.207031 -8.398438 8.65625 -8.828125 C 8.101562 -9.253906 7.5 -9.578125 6.84375 -9.796875 C 6.195312 -10.023438 5.5 -10.117188 4.75 -10.078125 L 4.75 0 L 2.4375 0 L 2.4375 -19.59375 L 2.8125 -19.59375 C 3.738281 -19.582031 4.71875 -19.628906 5.75 -19.734375 C 6.78125 -19.835938 7.742188 -19.890625 8.640625 -19.890625 C 10.210938 -19.890625 11.484375 -19.738281 12.453125 -19.4375 C 13.421875 -19.132812 14.175781 -18.742188 14.71875 -18.265625 C 15.257812 -17.785156 15.617188 -17.25 15.796875 -16.65625 C 15.984375 -16.070312 16.078125 -15.507812 16.078125 -14.96875 C 16.078125 -14.113281 15.878906 -13.359375 15.484375 -12.703125 C 15.085938 -12.054688 14.546875 -11.507812 13.859375 -11.0625 C 13.179688 -10.625 12.382812 -10.285156 11.46875 -10.046875 C 10.5625 -9.816406 9.59375 -9.703125 8.5625 -9.703125 C 10.050781 -9.234375 11.242188 -8.570312 12.140625 -7.71875 C 13.046875 -6.875 13.757812 -5.972656 14.28125 -5.015625 C 14.550781 -4.546875 14.816406 -4.023438 15.078125 -3.453125 C 15.347656 -2.890625 15.582031 -2.378906 15.78125 -1.921875 C 15.851562 -1.765625 15.929688 -1.585938 16.015625 -1.390625 C 16.109375 -1.203125 16.21875 -1.019531 16.34375 -0.84375 C 16.46875 -0.675781 16.601562 -0.535156 16.75 -0.421875 C 16.894531 -0.316406 17.066406 -0.265625 17.265625 -0.265625 Z M 13.5625 -14.828125 C 13.5625 -16.421875 13.085938 -17.609375 12.140625 -18.390625 C 11.203125 -19.179688 9.9375 -19.578125 8.34375 -19.578125 C 7.65625 -19.578125 6.988281 -19.519531 6.34375 -19.40625 C 5.695312 -19.300781 5.164062 -19.203125 4.75 -19.109375 L 4.75 -10.40625 L 6.1875 -10.28125 C 6.539062 -10.238281 6.90625 -10.195312 7.28125 -10.15625 C 7.664062 -10.125 8.039062 -10.109375 8.40625 -10.109375 C 9.175781 -10.109375 9.878906 -10.222656 10.515625 -10.453125 C 11.148438 -10.691406 11.691406 -11.019531 12.140625 -11.4375 C 12.597656 -11.851562 12.945312 -12.347656 13.1875 -12.921875 C 13.4375 -13.503906 13.5625 -14.140625 13.5625 -14.828125 Z M 13.5625 -14.828125 "/></g></g></g><g fill="#004aad" fill-opacity="1"><g transform="translate(177.846845, 281.86501)"><g><path d="M 16.96875 0 L 14.5625 0 C 14.488281 -0.21875 14.351562 -0.59375 14.15625 -1.125 C 13.96875 -1.65625 13.75 -2.285156 13.5 -3.015625 C 13.25 -3.753906 12.96875 -4.546875 12.65625 -5.390625 C 12.351562 -6.242188 12.054688 -7.09375 11.765625 -7.9375 L 4.828125 -7.9375 L 3.875 -5.5 C 3.75 -5.207031 3.601562 -4.835938 3.4375 -4.390625 C 3.28125 -3.953125 3.117188 -3.476562 2.953125 -2.96875 C 2.796875 -2.46875 2.644531 -1.957031 2.5 -1.4375 C 2.351562 -0.914062 2.222656 -0.4375 2.109375 0 L 1.078125 0 C 1.265625 -0.34375 1.492188 -0.820312 1.765625 -1.4375 C 2.035156 -2.050781 2.335938 -2.757812 2.671875 -3.5625 C 3.003906 -4.363281 3.351562 -5.234375 3.71875 -6.171875 C 4.09375 -7.117188 4.472656 -8.078125 4.859375 -9.046875 L 7.21875 -15.421875 C 7.46875 -16.078125 7.722656 -16.753906 7.984375 -17.453125 C 8.242188 -18.160156 8.519531 -18.875 8.8125 -19.59375 L 9.46875 -19.59375 Z M 8.265625 -17.21875 L 4.9375 -8.265625 L 11.625 -8.265625 Z M 8.265625 -17.21875 "/></g></g></g><g fill="#004aad" fill-opacity="1"><g transform="translate(198.013874, 281.86501)"><g><path d="M 7.859375 0 L 7.859375 -19.28125 L 6.046875 -19.28125 C 5.160156 -19.28125 4.410156 -19.242188 3.796875 -19.171875 C 3.179688 -19.097656 2.65625 -19 2.21875 -18.875 C 1.789062 -18.757812 1.4375 -18.632812 1.15625 -18.5 C 0.875 -18.363281 0.632812 -18.242188 0.4375 -18.140625 L 0.515625 -19.59375 L 17.515625 -19.59375 L 17.59375 -18.140625 C 17.394531 -18.242188 17.15625 -18.363281 16.875 -18.5 C 16.59375 -18.632812 16.238281 -18.757812 15.8125 -18.875 C 15.394531 -19 14.878906 -19.097656 14.265625 -19.171875 C 13.648438 -19.242188 12.898438 -19.28125 12.015625 -19.28125 L 10.171875 -19.28125 L 10.171875 0 Z M 7.859375 0 "/></g></g></g><g fill="#004aad" fill-opacity="1"><g transform="translate(218.153804, 281.86501)"><g><path d="M 17.15625 -13.5 C 17.15625 -14.582031 17.144531 -15.628906 17.125 -16.640625 C 17.113281 -17.648438 17.035156 -18.632812 16.890625 -19.59375 L 17.859375 -19.59375 C 17.710938 -18.625 17.628906 -17.628906 17.609375 -16.609375 C 17.597656 -15.585938 17.578125 -14.46875 17.546875 -13.25 L 17.546875 -8.5625 C 17.546875 -7.300781 17.429688 -6.128906 17.203125 -5.046875 C 16.972656 -3.972656 16.582031 -3.039062 16.03125 -2.25 C 15.476562 -1.46875 14.738281 -0.851562 13.8125 -0.40625 C 12.882812 0.0390625 11.722656 0.265625 10.328125 0.265625 C 9.003906 0.265625 7.890625 0.128906 6.984375 -0.140625 C 6.085938 -0.410156 5.34375 -0.753906 4.75 -1.171875 C 4.164062 -1.597656 3.71875 -2.078125 3.40625 -2.609375 C 3.101562 -3.148438 2.878906 -3.679688 2.734375 -4.203125 C 2.585938 -4.722656 2.503906 -5.21875 2.484375 -5.6875 C 2.472656 -6.15625 2.46875 -6.535156 2.46875 -6.828125 L 2.46875 -19.59375 L 4.765625 -19.59375 L 4.765625 -6.375 C 4.765625 -5.070312 4.972656 -4.015625 5.390625 -3.203125 C 5.804688 -2.398438 6.300781 -1.773438 6.875 -1.328125 C 7.457031 -0.878906 8.066406 -0.570312 8.703125 -0.40625 C 9.347656 -0.238281 9.898438 -0.15625 10.359375 -0.15625 C 11.734375 -0.15625 12.859375 -0.375 13.734375 -0.8125 C 14.609375 -1.257812 15.296875 -1.863281 15.796875 -2.625 C 16.304688 -3.382812 16.660156 -4.273438 16.859375 -5.296875 C 17.054688 -6.316406 17.15625 -7.40625 17.15625 -8.5625 Z M 17.15625 -13.5 "/></g></g></g><g fill="#004aad" fill-opacity="1"><g transform="translate(240.299539, 281.86501)"><g><path d="M 14.3125 -4.90625 C 14.3125 -4.195312 14.164062 -3.523438 13.875 -2.890625 C 13.59375 -2.265625 13.171875 -1.707031 12.609375 -1.21875 C 12.046875 -0.726562 11.359375 -0.335938 10.546875 -0.046875 C 9.734375 0.234375 8.800781 0.375 7.75 0.375 C 7.550781 0.375 7.238281 0.359375 6.8125 0.328125 C 6.394531 0.304688 5.90625 0.238281 5.34375 0.125 C 4.78125 0.0195312 4.164062 -0.132812 3.5 -0.34375 C 2.84375 -0.550781 2.179688 -0.84375 1.515625 -1.21875 L 1.6875 -2.734375 C 1.957031 -2.390625 2.28125 -2.050781 2.65625 -1.71875 C 3.03125 -1.382812 3.472656 -1.085938 3.984375 -0.828125 C 4.492188 -0.566406 5.054688 -0.351562 5.671875 -0.1875 C 6.285156 -0.03125 6.96875 0.046875 7.71875 0.046875 C 8.539062 0.046875 9.242188 -0.0507812 9.828125 -0.25 C 10.410156 -0.457031 10.882812 -0.738281 11.25 -1.09375 C 11.625 -1.445312 11.894531 -1.847656 12.0625 -2.296875 C 12.238281 -2.753906 12.328125 -3.226562 12.328125 -3.71875 C 12.328125 -4.3125 12.1875 -4.875 11.90625 -5.40625 C 11.632812 -5.9375 11.257812 -6.429688 10.78125 -6.890625 C 10.3125 -7.359375 9.765625 -7.789062 9.140625 -8.1875 C 8.523438 -8.582031 7.882812 -8.953125 7.21875 -9.296875 C 6.46875 -9.691406 5.757812 -10.09375 5.09375 -10.5 C 4.425781 -10.90625 3.832031 -11.347656 3.3125 -11.828125 C 2.800781 -12.304688 2.390625 -12.832031 2.078125 -13.40625 C 1.773438 -13.988281 1.625 -14.648438 1.625 -15.390625 C 1.625 -15.992188 1.734375 -16.570312 1.953125 -17.125 C 2.179688 -17.6875 2.53125 -18.1875 3 -18.625 C 3.476562 -19.0625 4.09375 -19.40625 4.84375 -19.65625 C 5.59375 -19.90625 6.5 -20.03125 7.5625 -20.03125 C 8.644531 -20.03125 9.625 -19.90625 10.5 -19.65625 C 11.375 -19.40625 12.15625 -19.085938 12.84375 -18.703125 L 12.6875 -17.1875 C 12.175781 -17.894531 11.503906 -18.488281 10.671875 -18.96875 C 9.847656 -19.457031 8.8125 -19.703125 7.5625 -19.703125 C 6.78125 -19.703125 6.132812 -19.613281 5.625 -19.4375 C 5.125 -19.257812 4.71875 -19.03125 4.40625 -18.75 C 4.101562 -18.46875 3.890625 -18.140625 3.765625 -17.765625 C 3.640625 -17.398438 3.578125 -17.023438 3.578125 -16.640625 C 3.578125 -15.992188 3.710938 -15.410156 3.984375 -14.890625 C 4.253906 -14.378906 4.617188 -13.914062 5.078125 -13.5 C 5.546875 -13.082031 6.078125 -12.703125 6.671875 -12.359375 C 7.265625 -12.015625 7.894531 -11.671875 8.5625 -11.328125 C 9.269531 -10.953125 9.96875 -10.554688 10.65625 -10.140625 C 11.34375 -9.722656 11.957031 -9.257812 12.5 -8.75 C 13.039062 -8.25 13.476562 -7.679688 13.8125 -7.046875 C 14.144531 -6.410156 14.3125 -5.695312 14.3125 -4.90625 Z M 14.3125 -4.90625 "/></g></g></g><g fill="#004aad" fill-opacity="1"><g transform="translate(153.762006, 300.038212)"><g><path d="M 2.734375 -7.953125 L 3.65625 -7.953125 L 3.65625 -3.25 C 3.65625 -2.90625 3.640625 -2.59375 3.609375 -2.3125 C 3.578125 -2.039062 3.53125 -1.796875 3.46875 -1.578125 C 3.414062 -1.359375 3.34375 -1.160156 3.25 -0.984375 C 3.164062 -0.804688 3.066406 -0.648438 2.953125 -0.515625 C 2.734375 -0.253906 2.476562 -0.078125 2.1875 0.015625 C 1.894531 0.109375 1.625 0.15625 1.375 0.15625 C 1.207031 0.15625 1.035156 0.117188 0.859375 0.046875 C 0.691406 -0.015625 0.546875 -0.109375 0.421875 -0.234375 C 0.328125 -0.316406 0.25 -0.421875 0.1875 -0.546875 C 0.132812 -0.679688 0.109375 -0.820312 0.109375 -0.96875 C 0.109375 -1.070312 0.109375 -1.160156 0.109375 -1.234375 C 0.117188 -1.304688 0.140625 -1.390625 0.171875 -1.484375 L 0.328125 -1.484375 C 0.304688 -1.398438 0.289062 -1.320312 0.28125 -1.25 C 0.269531 -1.1875 0.265625 -1.09375 0.265625 -0.96875 C 0.265625 -0.832031 0.289062 -0.707031 0.34375 -0.59375 C 0.394531 -0.488281 0.457031 -0.394531 0.53125 -0.3125 C 0.757812 -0.09375 1.046875 0.015625 1.390625 0.015625 C 1.609375 0.015625 1.8125 -0.03125 2 -0.125 C 2.195312 -0.21875 2.359375 -0.390625 2.484375 -0.640625 C 2.554688 -0.785156 2.609375 -0.953125 2.640625 -1.140625 C 2.671875 -1.328125 2.691406 -1.523438 2.703125 -1.734375 C 2.722656 -1.953125 2.734375 -2.179688 2.734375 -2.421875 C 2.734375 -2.660156 2.734375 -2.90625 2.734375 -3.15625 Z M 2.734375 -7.953125 "/></g></g></g><g fill="#004aad" fill-opacity="1"><g transform="translate(159.225347, 300.038212)"><g><path d="M 6.96875 -5.484375 C 6.96875 -5.921875 6.960938 -6.34375 6.953125 -6.75 C 6.941406 -7.164062 6.910156 -7.566406 6.859375 -7.953125 L 7.25 -7.953125 C 7.1875 -7.554688 7.148438 -7.148438 7.140625 -6.734375 C 7.140625 -6.316406 7.128906 -5.863281 7.109375 -5.375 L 7.109375 -3.46875 C 7.109375 -2.957031 7.0625 -2.484375 6.96875 -2.046875 C 6.882812 -1.609375 6.726562 -1.226562 6.5 -0.90625 C 6.28125 -0.59375 5.976562 -0.34375 5.59375 -0.15625 C 5.21875 0.0195312 4.75 0.109375 4.1875 0.109375 C 3.65625 0.109375 3.203125 0.0546875 2.828125 -0.046875 C 2.460938 -0.160156 2.160156 -0.300781 1.921875 -0.46875 C 1.691406 -0.644531 1.515625 -0.84375 1.390625 -1.0625 C 1.265625 -1.28125 1.171875 -1.492188 1.109375 -1.703125 C 1.046875 -1.921875 1.007812 -2.125 1 -2.3125 C 1 -2.5 1 -2.648438 1 -2.765625 L 1 -7.953125 L 1.9375 -7.953125 L 1.9375 -2.578125 C 1.9375 -2.054688 2.019531 -1.628906 2.1875 -1.296875 C 2.351562 -0.972656 2.550781 -0.71875 2.78125 -0.53125 C 3.019531 -0.351562 3.269531 -0.226562 3.53125 -0.15625 C 3.789062 -0.09375 4.015625 -0.0625 4.203125 -0.0625 C 4.753906 -0.0625 5.207031 -0.148438 5.5625 -0.328125 C 5.925781 -0.515625 6.207031 -0.757812 6.40625 -1.0625 C 6.613281 -1.375 6.757812 -1.734375 6.84375 -2.140625 C 6.925781 -2.554688 6.96875 -3 6.96875 -3.46875 Z M 6.96875 -5.484375 "/></g></g></g><g fill="#004aad" fill-opacity="1"><g transform="translate(168.162232, 300.038212)"><g><path d="M 6.71875 -5.484375 C 6.71875 -5.640625 6.710938 -5.828125 6.703125 -6.046875 C 6.703125 -6.265625 6.695312 -6.488281 6.6875 -6.71875 C 6.675781 -6.945312 6.664062 -7.171875 6.65625 -7.390625 C 6.644531 -7.609375 6.625 -7.796875 6.59375 -7.953125 L 7.03125 -7.953125 C 7 -7.816406 6.972656 -7.640625 6.953125 -7.421875 C 6.929688 -7.210938 6.914062 -6.984375 6.90625 -6.734375 C 6.894531 -6.484375 6.882812 -6.222656 6.875 -5.953125 C 6.875 -5.679688 6.875 -5.414062 6.875 -5.15625 L 6.875 0.15625 L 6.734375 0.15625 L 1.359375 -6.515625 L 1.359375 -2.6875 C 1.359375 -2.144531 1.367188 -1.644531 1.390625 -1.1875 C 1.410156 -0.726562 1.445312 -0.332031 1.5 0 L 1.0625 0 C 1.113281 -0.164062 1.144531 -0.375 1.15625 -0.625 C 1.175781 -0.882812 1.1875 -1.144531 1.1875 -1.40625 C 1.195312 -1.664062 1.203125 -1.910156 1.203125 -2.140625 C 1.203125 -2.378906 1.203125 -2.5625 1.203125 -2.6875 L 1.203125 -6.703125 C 1.054688 -6.898438 0.890625 -7.109375 0.703125 -7.328125 C 0.523438 -7.546875 0.363281 -7.753906 0.21875 -7.953125 L 1.390625 -7.953125 L 6.71875 -1.28125 Z M 6.71875 -5.484375 "/></g></g></g><g fill="#004aad" fill-opacity="1"><g transform="translate(176.989197, 300.038212)"><g><path d="M 1.921875 0 L 0.984375 0 L 0.984375 -7.953125 L 1.921875 -7.953125 Z M 1.921875 0 "/></g></g></g><g fill="#004aad" fill-opacity="1"><g transform="translate(180.715771, 300.038212)"><g><path d="M 3.1875 0 L 3.1875 -7.828125 L 2.453125 -7.828125 C 2.085938 -7.828125 1.78125 -7.8125 1.53125 -7.78125 C 1.289062 -7.75 1.082031 -7.707031 0.90625 -7.65625 C 0.726562 -7.613281 0.582031 -7.5625 0.46875 -7.5 C 0.351562 -7.445312 0.253906 -7.398438 0.171875 -7.359375 L 0.203125 -7.953125 L 7.109375 -7.953125 L 7.140625 -7.359375 C 7.054688 -7.398438 6.957031 -7.445312 6.84375 -7.5 C 6.726562 -7.5625 6.582031 -7.613281 6.40625 -7.65625 C 6.238281 -7.707031 6.03125 -7.75 5.78125 -7.78125 C 5.53125 -7.8125 5.226562 -7.828125 4.875 -7.828125 L 4.125 -7.828125 L 4.125 0 Z M 3.1875 0 "/></g></g></g><g fill="#004aad" fill-opacity="1"><g transform="translate(188.839233, 300.038212)"><g><path d="M 8.859375 -4 C 8.859375 -3.726562 8.828125 -3.4375 8.765625 -3.125 C 8.710938 -2.8125 8.625 -2.5 8.5 -2.1875 C 8.375 -1.882812 8.203125 -1.585938 7.984375 -1.296875 C 7.773438 -1.015625 7.515625 -0.765625 7.203125 -0.546875 C 6.898438 -0.335938 6.539062 -0.164062 6.125 -0.03125 C 5.71875 0.09375 5.253906 0.15625 4.734375 0.15625 C 4.210938 0.15625 3.742188 0.09375 3.328125 -0.03125 C 2.921875 -0.164062 2.5625 -0.335938 2.25 -0.546875 C 1.945312 -0.765625 1.691406 -1.015625 1.484375 -1.296875 C 1.273438 -1.585938 1.109375 -1.882812 0.984375 -2.1875 C 0.859375 -2.5 0.765625 -2.8125 0.703125 -3.125 C 0.640625 -3.4375 0.609375 -3.726562 0.609375 -4 C 0.609375 -4.4375 0.679688 -4.894531 0.828125 -5.375 C 0.984375 -5.863281 1.222656 -6.3125 1.546875 -6.71875 C 1.867188 -7.125 2.289062 -7.457031 2.8125 -7.71875 C 3.332031 -7.988281 3.972656 -8.125 4.734375 -8.125 C 5.503906 -8.125 6.148438 -8 6.671875 -7.75 C 7.191406 -7.5 7.613281 -7.171875 7.9375 -6.765625 C 8.269531 -6.367188 8.503906 -5.925781 8.640625 -5.4375 C 8.785156 -4.945312 8.859375 -4.46875 8.859375 -4 Z M 7.84375 -4 C 7.84375 -4.5625 7.773438 -5.085938 7.640625 -5.578125 C 7.503906 -6.066406 7.304688 -6.488281 7.046875 -6.84375 C 6.785156 -7.207031 6.457031 -7.488281 6.0625 -7.6875 C 5.675781 -7.894531 5.234375 -8 4.734375 -8 C 4.234375 -8 3.789062 -7.898438 3.40625 -7.703125 C 3.019531 -7.515625 2.695312 -7.242188 2.4375 -6.890625 C 2.175781 -6.546875 1.976562 -6.125 1.84375 -5.625 C 1.707031 -5.132812 1.640625 -4.59375 1.640625 -4 C 1.640625 -3.476562 1.703125 -2.976562 1.828125 -2.5 C 1.960938 -2.019531 2.160156 -1.59375 2.421875 -1.21875 C 2.679688 -0.84375 3 -0.539062 3.375 -0.3125 C 3.757812 -0.09375 4.210938 0.015625 4.734375 0.015625 C 5.253906 0.015625 5.707031 -0.09375 6.09375 -0.3125 C 6.488281 -0.539062 6.8125 -0.84375 7.0625 -1.21875 C 7.320312 -1.59375 7.515625 -2.019531 7.640625 -2.5 C 7.773438 -2.976562 7.84375 -3.476562 7.84375 -4 Z M 7.84375 -4 "/></g></g></g><g fill="#004aad" fill-opacity="1"><g transform="translate(199.128157, 300.038212)"><g><path d="M 7 -0.109375 C 7.070312 -0.109375 7.132812 -0.128906 7.1875 -0.171875 C 7.25 -0.210938 7.296875 -0.265625 7.328125 -0.328125 C 7.359375 -0.398438 7.382812 -0.472656 7.40625 -0.546875 C 7.425781 -0.628906 7.4375 -0.707031 7.4375 -0.78125 L 7.5625 -0.78125 C 7.5625 -0.695312 7.550781 -0.597656 7.53125 -0.484375 C 7.519531 -0.378906 7.476562 -0.28125 7.40625 -0.1875 C 7.34375 -0.09375 7.25 -0.015625 7.125 0.046875 C 7 0.117188 6.832031 0.15625 6.625 0.15625 C 6.382812 0.15625 6.171875 0.101562 5.984375 0 C 5.796875 -0.113281 5.617188 -0.269531 5.453125 -0.46875 C 5.296875 -0.675781 5.144531 -0.921875 5 -1.203125 C 4.851562 -1.492188 4.707031 -1.8125 4.5625 -2.15625 C 4.4375 -2.4375 4.285156 -2.703125 4.109375 -2.953125 C 3.929688 -3.203125 3.726562 -3.410156 3.5 -3.578125 C 3.28125 -3.753906 3.039062 -3.882812 2.78125 -3.96875 C 2.519531 -4.0625 2.234375 -4.101562 1.921875 -4.09375 L 1.921875 0 L 0.984375 0 L 0.984375 -7.953125 L 1.140625 -7.953125 C 1.515625 -7.941406 1.910156 -7.957031 2.328125 -8 C 2.742188 -8.050781 3.140625 -8.078125 3.515625 -8.078125 C 4.148438 -8.078125 4.660156 -8.015625 5.046875 -7.890625 C 5.441406 -7.765625 5.75 -7.601562 5.96875 -7.40625 C 6.1875 -7.207031 6.332031 -6.988281 6.40625 -6.75 C 6.476562 -6.519531 6.515625 -6.296875 6.515625 -6.078125 C 6.515625 -5.734375 6.429688 -5.425781 6.265625 -5.15625 C 6.109375 -4.894531 5.894531 -4.671875 5.625 -4.484375 C 5.351562 -4.304688 5.03125 -4.171875 4.65625 -4.078125 C 4.289062 -3.984375 3.894531 -3.9375 3.46875 -3.9375 C 4.070312 -3.75 4.554688 -3.484375 4.921875 -3.140625 C 5.296875 -2.796875 5.585938 -2.425781 5.796875 -2.03125 C 5.910156 -1.84375 6.019531 -1.632812 6.125 -1.40625 C 6.226562 -1.175781 6.320312 -0.96875 6.40625 -0.78125 C 6.4375 -0.71875 6.46875 -0.644531 6.5 -0.5625 C 6.539062 -0.488281 6.582031 -0.414062 6.625 -0.34375 C 6.675781 -0.269531 6.734375 -0.210938 6.796875 -0.171875 C 6.859375 -0.128906 6.925781 -0.109375 7 -0.109375 Z M 5.5 -6.015625 C 5.5 -6.660156 5.304688 -7.140625 4.921875 -7.453125 C 4.546875 -7.773438 4.035156 -7.9375 3.390625 -7.9375 C 3.109375 -7.9375 2.832031 -7.914062 2.5625 -7.875 C 2.300781 -7.832031 2.085938 -7.789062 1.921875 -7.75 L 1.921875 -4.21875 L 2.515625 -4.171875 C 2.660156 -4.148438 2.804688 -4.132812 2.953125 -4.125 C 3.109375 -4.113281 3.257812 -4.109375 3.40625 -4.109375 C 3.726562 -4.109375 4.015625 -4.15625 4.265625 -4.25 C 4.523438 -4.34375 4.742188 -4.472656 4.921875 -4.640625 C 5.109375 -4.804688 5.25 -5.003906 5.34375 -5.234375 C 5.445312 -5.472656 5.5 -5.734375 5.5 -6.015625 Z M 5.5 -6.015625 "/></g></g></g><g fill="#004aad" fill-opacity="1"><g transform="translate(207.559397, 300.038212)"><g><path d="M 1.921875 0 L 0.984375 0 L 0.984375 -7.953125 L 1.921875 -7.953125 Z M 1.921875 0 "/></g></g></g><g fill="#004aad" fill-opacity="1"><g transform="translate(211.28597, 300.038212)"><g><path d="M 6.890625 0 L 5.90625 0 C 5.875 -0.0820312 5.816406 -0.234375 5.734375 -0.453125 C 5.660156 -0.671875 5.570312 -0.925781 5.46875 -1.21875 C 5.375 -1.519531 5.265625 -1.84375 5.140625 -2.1875 C 5.015625 -2.53125 4.894531 -2.875 4.78125 -3.21875 L 1.953125 -3.21875 L 1.578125 -2.234375 C 1.523438 -2.117188 1.460938 -1.96875 1.390625 -1.78125 C 1.328125 -1.601562 1.257812 -1.410156 1.1875 -1.203125 C 1.125 -1.003906 1.0625 -0.796875 1 -0.578125 C 0.945312 -0.367188 0.898438 -0.175781 0.859375 0 L 0.4375 0 C 0.507812 -0.132812 0.597656 -0.328125 0.703125 -0.578125 C 0.816406 -0.828125 0.941406 -1.113281 1.078125 -1.4375 C 1.210938 -1.769531 1.351562 -2.125 1.5 -2.5 C 1.65625 -2.882812 1.8125 -3.273438 1.96875 -3.671875 L 2.921875 -6.265625 C 3.023438 -6.523438 3.128906 -6.796875 3.234375 -7.078125 C 3.347656 -7.367188 3.460938 -7.660156 3.578125 -7.953125 L 3.84375 -7.953125 Z M 3.359375 -6.984375 L 2 -3.359375 L 4.71875 -3.359375 Z M 3.359375 -6.984375 "/></g></g></g><g fill="#004aad" fill-opacity="1"><g transform="translate(219.420419, 300.038212)"><g><path d="M 2.546875 -0.125 C 2.804688 -0.125 3.09375 -0.128906 3.40625 -0.140625 C 3.726562 -0.160156 4.050781 -0.1875 4.375 -0.21875 C 4.707031 -0.25 5.023438 -0.296875 5.328125 -0.359375 C 5.640625 -0.429688 5.925781 -0.53125 6.1875 -0.65625 L 6.0625 0 L 0.984375 0 L 0.984375 -7.953125 L 1.921875 -7.953125 L 1.921875 -0.125 Z M 2.546875 -0.125 "/></g></g></g></svg>