<svg version="1.2" xmlns="http://www.w3.org/2000/svg" viewBox="0 0 750 750" width="750" height="750">
	<title>stratus (1)</title>
	<defs>
		<clipPath clipPathUnits="userSpaceOnUse" id="cp1">
			<path d="m0 0h750v750h-750z"/>
		</clipPath>
	</defs>
	<style>
		.s0 { fill: #5271ff } 
	</style>
	<g id="Page 1" clip-path="url(#cp1)">
		<path id="Path 6" fill-rule="evenodd" class="s0" d="m466.9 138.52c0.13-0.21 0.13 11.13 0.07 29.79zm-1.56 0.79q0.1-0.05 0.19-0.1-0.17 0.09-0.19 0.1zm0.19-0.1c0.41-0.2 1.37-0.69 1.37-0.69-0.01 0.02-0.5 0.26-1.37 0.69z"/>
		<path id="Path 7" class="s0" d="m467.75 485.32l-0.77-317.01c-0.27 83.21-1.89 312.25-0.17 316.15l-122.11-0.1c-0.02-2.78-0.04-11.61-0.05-24.54 26.36 0.04 51.18 0.08 51.68 0.1h0.93v-0.93q0.03-10.82 0.04-21.64l38.07 0.04h0.97v-0.97c-0.09-0.13-0.32-253.84-0.43-253.86-0.1-0.05-12.55-5.85-29.19-13.6 29.3-14.82 57.17-28.91 58.63-29.65-6.54 3.26-32.76 16.24-59.25 29.36-33.69-15.69-83.91-39.08-84.12-39.18 0 0 49.68 23.67 83.2 39.64-30.9 15.3-61.83 30.62-61.95 30.74 0.01 0.03 0 11.85-0.03 30.65-6.98 3.28-13.99 6.59-20.8 9.79-0.2-37.17-0.39-70.74-0.47-90.96-0.02 11.06-0.13 49.12-0.25 91.3-14.78 6.96-28.55 13.44-38.74 18.23 10.13-4.64 23.92-10.95 38.74-17.74-0.25 90.39-0.53 195.28-0.53 195.28v0.84h0.84l20.86 0.02c-0.01 7.69-0.02 14.72-0.03 20.87l-59.15 0.11-0.22-99.19-0.5-100.2-0.5 99.91-0.23 100.21v0.71c0.53 0.02 31.19 0.07 60.59 0.12-0.02 15.77-0.03 25.48-0.01 25.5v0.96h0.96l123.15-0.11h0.85v-0.86zm-124.91-49.76c-11.63 0.01-19.86 0.02-20.77 0.02 1.22-2.2 0.78-108.14 0.32-194.76 6.81-3.12 13.82-6.33 20.8-9.54-0.08 49.34-0.26 145.44-0.35 204.27zm1.16-234.87c0 0 30.9-15.63 61.81-31.26 16.75 7.99 29.32 13.97 29.32 13.97-0.76-2.29-0.59 235.28-0.72 252.06-3.84 0-19.05 0.02-37.12 0.04q0.03-19.84-0.03-39.69c-0.08-41.18-0.29-147.88-0.37-190.48-13.33 6.22-32.74 15.34-52.55 24.66-0.09-18.51-0.19-29.88-0.34-29.3zm0.35 30.07c19.36-8.87 38.29-17.56 51.39-23.63-0.08 42.13-0.28 148.79-0.37 188.68q-0.06 19.85-0.03 39.69c-17.02 0.03-36.23 0.05-50.72 0.06-0.05-59.17-0.07-156.02-0.28-204.8zm0.27 206.54l50.73 0.05q0 10.36 0.03 20.71l-50.74 0.1c0-6.16-0.01-13.17-0.01-20.86z"/>
	</g>
</svg>